HIERARCHY
ROOT hip
{
  OFFSET 0 0 0
  CHANNELS 6 Xposition Yposition Zposition Zrotation Yrotation Xrotation
  JOINT abdomen
  {
    OFFSET 0 20.6881 -0.73152
    CHANNELS 3 Zrotation Xrotation Yrotation
    JOINT chest
    {
      OFFSET 0 11.7043 -0.48768
      CHANNELS 3 Zrotation Xrotation Yrotation
      JOINT neck
      {
        OFFSET 0 22.1894 -2.19456
        CHANNELS 3 Zrotation Xrotation Yrotation
        JOINT head
        {
          OFFSET -0.24384 7.07133 1.2192
          CHANNELS 3 Zrotation Xrotation Yrotation
          JOINT leftEye
          {
            OFFSET 4.14528 8.04674 8.04672
            CHANNELS 3 Zrotation Xrotation Yrotation
            End Site
            {
              OFFSET 1 0 0
            }
          }
          JOINT rightEye
          {
            OFFSET -3.6576 8.04674 8.04672
            CHANNELS 3 Zrotation Xrotation Yrotation
            End Site
            {
              OFFSET 1 0 0
            }
          }
        }
      }
      JOINT rCollar
      {
        OFFSET -2.68224 19.2634 -4.8768
        CHANNELS 3 Zrotation Xrotation Yrotation
        JOINT rShldr
        {
          OFFSET -8.77824 -1.95073 1.46304
          CHANNELS 3 Zrotation Xrotation Yrotation
          JOINT rForeArm
          {
            OFFSET -28.1742 -1.7115 0.48768
            CHANNELS 3 Zrotation Xrotation Yrotation
            JOINT rHand
            {
              OFFSET -22.5879 0.773209 7.07136
              CHANNELS 3 Zrotation Xrotation Yrotation
              JOINT rThumb1
              {
                OFFSET -1.2192 -0.487915 3.41376
                CHANNELS 3 Zrotation Xrotation Yrotation
                JOINT rThumb2
                {
                  OFFSET -3.37035 -0.52449 3.41376
                  CHANNELS 3 Zrotation Xrotation Yrotation
                  End Site
                  {
                    OFFSET -1.78271 -1.18214 1.43049
                  }
                }
              }
              JOINT rIndex1
              {
                OFFSET -7.75947 0.938293 5.60832
                CHANNELS 3 Zrotation Xrotation Yrotation
                JOINT rIndex2
                {
                  OFFSET -2.54057 -0.884171 1.56538
                  CHANNELS 3 Zrotation Xrotation Yrotation
                  End Site
                  {
                    OFFSET -1.62519 -0.234802 1.16502
                  }
                }
              }
              JOINT rMid1
              {
                OFFSET -8.24714 1.18213 3.41376
                CHANNELS 3 Zrotation Xrotation Yrotation
                JOINT rMid2
                {
                  OFFSET -3.10165 -0.590103 1.0647
                  CHANNELS 3 Zrotation Xrotation Yrotation
                  End Site
                  {
                    OFFSET -2.48547 -0.328903 0.83742
                  }
                }
              }
              JOINT rRing1
              {
                OFFSET -8.82822 0.546677 1.51678
                CHANNELS 3 Zrotation Xrotation Yrotation
                JOINT rRing2
                {
                  OFFSET -2.60934 -0.819778 -0.0198488
                  CHANNELS 3 Zrotation Xrotation Yrotation
                  End Site
                  {
                    OFFSET -2.33842 -0.294052 0.168128
                  }
                }
              }
              JOINT rPinky1
              {
                OFFSET -8.27202 -0.0477905 -0.4584
                CHANNELS 3 Zrotation Xrotation Yrotation
                JOINT rPinky2
                {
                  OFFSET -1.82734 -0.647385 -0.700984
                  CHANNELS 3 Zrotation Xrotation Yrotation
                  End Site
                  {
                    OFFSET -1.69225 -0.51767 -0.607171
                  }
                }
              }
            }
          }
        }
      }
      JOINT lCollar
      {
        OFFSET 2.68224 19.2634 -4.8768
        CHANNELS 3 Zrotation Xrotation Yrotation
        JOINT lShldr
        {
          OFFSET 8.77824 -1.95073 1.46304
          CHANNELS 3 Zrotation Xrotation Yrotation
          JOINT lForeArm
          {
            OFFSET 28.1742 -1.7115 0.48768
            CHANNELS 3 Zrotation Xrotation Yrotation
            JOINT lHand
            {
              OFFSET 22.5879 0.773209 7.07136
              CHANNELS 3 Zrotation Xrotation Yrotation
              JOINT lThumb1
              {
                OFFSET 1.2192 -0.487915 3.41376
                CHANNELS 3 Zrotation Xrotation Yrotation
                JOINT lThumb2
                {
                  OFFSET 3.37035 -0.52449 3.41376
                  CHANNELS 3 Zrotation Xrotation Yrotation
                  End Site
                  {
                    OFFSET 1.78271 -1.18214 1.43049
                  }
                }
              }
              JOINT lIndex1
              {
                OFFSET 7.75947 0.938293 5.60832
                CHANNELS 3 Zrotation Xrotation Yrotation
                JOINT lIndex2
                {
                  OFFSET 2.54057 -0.884171 1.56538
                  CHANNELS 3 Zrotation Xrotation Yrotation
                  End Site
                  {
                    OFFSET 1.62519 -0.234802 1.16502
                  }
                }
              }
              JOINT lMid1
              {
                OFFSET 8.24714 1.18213 3.41376
                CHANNELS 3 Zrotation Xrotation Yrotation
                JOINT lMid2
                {
                  OFFSET 3.10165 -0.590103 1.0647
                  CHANNELS 3 Zrotation Xrotation Yrotation
                  End Site
                  {
                    OFFSET 2.48547 -0.328903 0.83742
                  }
                }
              }
              JOINT lRing1
              {
                OFFSET 8.82822 0.546677 1.51678
                CHANNELS 3 Zrotation Xrotation Yrotation
                JOINT lRing2
                {
                  OFFSET 2.60934 -0.819778 -0.0198488
                  CHANNELS 3 Zrotation Xrotation Yrotation
                  End Site
                  {
                    OFFSET 2.33842 -0.294052 0.168128
                  }
                }
              }
              JOINT lPinky1
              {
                OFFSET 8.27202 -0.0477905 -0.4584
                CHANNELS 3 Zrotation Xrotation Yrotation
                JOINT lPinky2
                {
                  OFFSET 1.82734 -0.647385 -0.700984
                  CHANNELS 3 Zrotation Xrotation Yrotation
                  End Site
                  {
                    OFFSET 1.69225 -0.51767 -0.607171
                  }
                }
              }
            }
          }
        }
      }
    }
  }
  JOINT rButtock
  {
    OFFSET -8.77824 4.35084 1.2192
    CHANNELS 3 Zrotation Xrotation Yrotation
    JOINT rThigh
    {
      OFFSET 0 -1.70687 -2.19456
      CHANNELS 3 Zrotation Xrotation Yrotation
      JOINT rShin
      {
        OFFSET 0 -36.8199 0.73152
        CHANNELS 3 Zrotation Xrotation Yrotation
        JOINT rFoot
        {
          OFFSET 0.73152 -45.1104 -5.12064
          CHANNELS 3 Zrotation Xrotation Yrotation
          End Site
          {
            OFFSET -1.1221 -3.69964 12.103
          }
        }
      }
    }
  }
  JOINT lButtock
  {
    OFFSET 8.77824 4.35084 1.2192
    CHANNELS 3 Zrotation Xrotation Yrotation
    JOINT lThigh
    {
      OFFSET 0 -1.70687 -2.19456
      CHANNELS 3 Zrotation Xrotation Yrotation
      JOINT lShin
      {
        OFFSET 0 -36.8199 0.73152
        CHANNELS 3 Zrotation Xrotation Yrotation
        JOINT lFoot
        {
          OFFSET -0.73152 -45.1104 -5.12064
          CHANNELS 3 Zrotation Xrotation Yrotation
          End Site
          {
            OFFSET 1.1221 -3.69964 12.103
          }
        }
      }
    }
  }
}
MOTION
Frames:	7
Frame Time:	0.00833333
-17.5811 55.951 233.414 9.2539 13.1757 7.216 -18.3162 9.85818 -17.3846 11.6619 -8.06595 -4.4531 -11.0262 26.4067 -21.3783 24.8684 -26.8343 -37.6406 -0.0 0.0 0.0 -0.0 0.0 0.0 2.89223e-13 8.4928e-14 -4.53418e-13 57.816 43.8033 6.84238 -15.9986 -8.6859 29.6698 -0.0984725 8.91454 1.26317 -4.72959e-10 2.19643e-09 -1.7934e-09 -8.31215e-10 3.80772e-09 -3.09792e-09 -4.72948e-10 2.19642e-09 -1.79341e-09 7.73091 5.47488 0.417314 -4.72947e-10 2.19641e-09 -1.79339e-09 2.90554 0.965183 0.102902 -4.72948e-10 2.19642e-09 -1.7934e-09 10.2786 0.731801 0.0259123 -4.72964e-10 2.19642e-09 -1.79339e-09 2.22167 -0.733487 -0.20892 2.89184e-13 8.49275e-14 -4.53725e-13 -73.55 31.8305 -6.80231 13.7331 -6.74112 -25.0185 0.427332 18.262 -2.65811 -2.89118e-10 -1.82559e-09 -1.23516e-09 -5.17779e-10 -3.15845e-09 -2.12669e-09 -2.89117e-10 -1.82558e-09 -1.23515e-09 -7.73091 5.47488 -0.417314 -2.89116e-10 -1.82558e-09 -1.23516e-09 -2.90554 0.965183 -0.102902 -2.89122e-10 -1.82558e-09 -1.23516e-09 -10.2786 0.731801 -0.0259123 -2.89114e-10 -1.82558e-09 -1.23517e-09 -2.22167 -0.733487 0.20892 -2.03217e-16 0.0 -3.88251e-19 -62.529 -61.4352 -51.9667 -2.52551 72.9215 3.12454 1.674 -3.68875 12.3332 2.03217e-16 0.0 3.88251e-19 3.64891 16.3282 6.18237 -0.220541 27.565 -2.39868 14.016 -21.4172 35.9123
-17.5559 55.9614 233.414 9.2309 13.1959 7.2324 -18.2598 9.86208 -17.4223 11.6768 -8.06683 -4.46171 -11.0195 26.388 -21.3805 24.8725 -26.8088 -37.6463 -0.0 0.0 0.0 -0.0 0.0 0.0 2.71728e-13 4.01549e-14 -4.95968e-13 57.8518 43.7383 6.79405 -15.9107 -8.60449 29.4842 -0.0996138 8.96565 1.27053 -2.79825e-10 1.75866e-09 -1.57236e-09 -4.95865e-10 3.05033e-09 -2.7167e-09 -2.79817e-10 1.75865e-09 -1.57237e-09 7.73091 5.47488 0.417314 -2.79812e-10 1.75864e-09 -1.57235e-09 2.90554 0.965183 0.102902 -2.79814e-10 1.75865e-09 -1.57237e-09 10.2786 0.731801 0.0259123 -2.79831e-10 1.75865e-09 -1.57236e-09 2.22167 -0.733487 -0.20892 2.71717e-13 4.01545e-14 -4.96266e-13 -73.3848 31.8907 -7.0392 13.7911 -6.78707 -25.1347 0.422498 18.1633 -2.64271 4.32813e-10 -1.23618e-09 -1.18787e-09 7.3072e-10 -2.15384e-09 -2.05672e-09 4.32814e-10 -1.23618e-09 -1.18787e-09 -7.73091 5.47488 -0.417314 4.32816e-10 -1.23617e-09 -1.18787e-09 -2.90554 0.965183 -0.102902 4.3281e-10 -1.23617e-09 -1.18788e-09 -10.2786 0.731801 -0.0259123 4.32815e-10 -1.23617e-09 -1.18789e-09 -2.22167 -0.733487 0.20892 -2.03217e-16 0.0 -3.88251e-19 -62.4617 -61.4404 -51.9137 -2.51613 72.8915 3.11591 1.66559 -3.68707 12.2941 2.03217e-16 0.0 3.88251e-19 3.65829 16.3119 6.17952 -0.219946 27.5624 -2.39789 14.0231 -21.4136 35.9289
-17.5317 55.9701 233.422 9.1754 13.1988 7.2161 -18.1723 9.82642 -17.4411 11.6881 -8.06306 -4.46277 -10.9942 26.372 -21.3902 24.8542 -26.7956 -37.6636 -0.0 0.0 0.0 -0.0 0.0 0.0 2.32527e-13 -6.48209e-15 -4.25742e-13 57.8752 43.6525 6.77335 -15.818 -8.51936 29.2893 -0.100779 9.01736 1.27798 -4.81842e-10 1.73603e-09 -1.37032e-09 -8.43455e-10 3.0078e-09 -2.3653e-09 -4.81836e-10 1.73603e-09 -1.37033e-09 7.73091 5.47488 0.417314 -4.81831e-10 1.73602e-09 -1.37031e-09 2.90554 0.965183 0.102902 -4.81834e-10 1.73603e-09 -1.37032e-09 10.2786 0.731801 0.0259123 -4.81847e-10 1.73603e-09 -1.37031e-09 2.22167 -0.733487 -0.20892 2.3249e-13 -6.48238e-15 -4.2602e-13 -73.2058 31.9718 -7.2886 13.843 -6.82842 -25.239 0.416156 18.0329 -2.62241 3.58993e-10 -1.69518e-09 -1.51123e-09 5.98263e-10 -2.95111e-09 -2.61558e-09 3.58994e-10 -1.69517e-09 -1.51123e-09 -7.73091 5.47488 -0.417314 3.58996e-10 -1.69516e-09 -1.51123e-09 -2.90554 0.965183 -0.102902 3.58989e-10 -1.69517e-09 -1.51124e-09 -10.2786 0.731801 -0.0259123 3.58996e-10 -1.69516e-09 -1.51125e-09 -2.22167 -0.733487 0.20892 -2.03217e-16 0.0 -3.88251e-19 -62.3513 -61.5037 -51.8587 -2.50614 72.8528 3.10654 1.65284 -3.68059 12.2233 2.03217e-16 0.0 3.88251e-19 3.71031 16.2487 6.19187 -0.219218 27.5932 -2.39887 14.0555 -21.4377 35.9511
-17.5322 55.9736 233.411 9.1491 13.1524 7.2879 -18.0605 9.76524 -17.4489 11.697 -8.05662 -4.45924 -10.957 26.3568 -21.4041 24.8206 -26.7902 -37.6875 -0.0 0.0 0.0 -0.0 0.0 0.0 1.69358e-13 -5.88156e-14 -2.78149e-13 57.8891 43.5537 6.7714 -15.7235 -8.43301 29.0905 -0.101892 9.06653 1.28507 -8.81377e-10 1.8536e-09 -1.11416e-09 -1.53194e-09 3.20577e-09 -1.91879e-09 -8.81372e-10 1.8536e-09 -1.11417e-09 7.73091 5.47488 0.417314 -8.81371e-10 1.8536e-09 -1.11416e-09 2.90554 0.965183 0.102902 -8.81375e-10 1.8536e-09 -1.11417e-09 10.2786 0.731801 0.0259123 -8.81383e-10 1.8536e-09 -1.11416e-09 2.22167 -0.733487 -0.20892 1.69261e-13 -5.88158e-14 -2.78398e-13 -73.0188 32.0618 -7.54552 13.8916 -6.86716 -25.3364 0.408798 17.8798 -2.59859 -1.53155e-10 -2.71474e-09 -2.01572e-09 -2.94587e-10 -4.71177e-09 -3.48123e-09 -1.53157e-10 -2.71474e-09 -2.01571e-09 -7.73091 5.47488 -0.417314 -1.53154e-10 -2.71473e-09 -2.01571e-09 -2.90554 0.965183 -0.102902 -1.53162e-10 -2.71474e-09 -2.01572e-09 -10.2786 0.731801 -0.0259123 -1.53151e-10 -2.71473e-09 -2.01573e-09 -2.22167 -0.733487 0.20892 -2.03217e-16 0.0 -3.88251e-19 -62.208 -61.6028 -51.8024 -2.49493 72.8064 3.09583 1.63681 -3.66975 12.1307 2.03217e-16 0.0 3.88251e-19 3.79533 16.1519 6.21258 -0.218316 27.6468 -2.40099 14.1047 -21.4797 35.9777
-17.589 55.9569 233.403 8.7462 13.0651 7.3214 -17.9655 9.70085 -17.4521 11.7077 -8.05056 -4.45448 -10.9216 26.3456 -21.4189 24.7879 -26.785 -37.7132 -0.0 0.0 0.0 -0.0 0.0 0.0 9.51535e-14 -9.59546e-14 -1.234e-13 57.902 43.4578 6.76711 -15.6339 -8.35166 28.9031 -0.102921 9.11179 1.29159 -1.17912e-09 1.85542e-09 -8.23597e-10 -2.04435e-09 3.20437e-09 -1.41376e-09 -1.17912e-09 1.85542e-09 -8.23609e-10 7.73091 5.47488 0.417314 -1.17912e-09 1.85542e-09 -8.23597e-10 2.90554 0.965183 0.102902 -1.17913e-09 1.85542e-09 -8.236e-10 10.2786 0.731801 0.0259123 -1.17913e-09 1.85542e-09 -8.23594e-10 2.22167 -0.733487 -0.20892 9.5e-14 -9.59547e-14 -1.23619e-13 -72.8399 32.148 -7.79078 13.9417 -6.90745 -25.4372 0.401465 17.7248 -2.57455 -6.96809e-10 -3.54961e-09 -2.34236e-09 -1.23943e-09 -6.1507e-09 -4.03895e-09 -6.96813e-10 -3.54961e-09 -2.34235e-09 -7.73091 5.47488 -0.417314 -6.96809e-10 -3.5496e-09 -2.34235e-09 -2.90554 0.965183 -0.102902 -6.96818e-10 -3.54961e-09 -2.34236e-09 -10.2786 0.731801 -0.0259123 -6.96804e-10 -3.5496e-09 -2.34236e-09 -2.22167 -0.733487 0.20892 -2.03217e-16 0.0 -3.88251e-19 -62.0781 -61.6997 -51.7485 -2.48451 72.7607 3.08604 1.62175 -3.65821 12.0435 2.03217e-16 0.0 3.88251e-19 3.87417 16.0598 6.2463 -0.217594 27.6937 -2.40281 14.1458 -21.5222 35.9903
-17.5376 55.9652 233.397 8.9002 13.1014 7.3765 -17.9284 9.65558 -17.4566 11.7247 -8.04791 -4.45185 -10.902 26.3415 -21.4313 24.7724 -26.7729 -37.7361 -0.0 0.0 0.0 -0.0 0.0 0.0 2.285e-14 -9.70077e-14 -3.17062e-14 57.9225 43.3809 6.73948 -15.5566 -8.28165 28.742 -0.103838 9.15178 1.29736 -1.07577e-09 1.48552e-09 -5.18322e-10 -1.86374e-09 2.56372e-09 -8.86785e-10 -1.07577e-09 1.48552e-09 -5.18335e-10 7.73091 5.47488 0.417314 -1.07578e-09 1.48553e-09 -5.18325e-10 2.90554 0.965183 0.102902 -1.07578e-09 1.48553e-09 -5.18325e-10 10.2786 0.731801 0.0259123 -1.07578e-09 1.48553e-09 -5.18319e-10 2.22167 -0.733487 -0.20892 2.26732e-14 -9.70077e-14 -3.19049e-14 -72.6855 32.2183 -8.00499 13.9987 -6.95337 -25.5514 0.395123 17.5891 -2.55353 -8.65146e-10 -3.4545e-09 -2.13217e-09 -1.52786e-09 -5.98278e-09 -3.67403e-09 -8.65151e-10 -3.4545e-09 -2.13217e-09 -7.73091 5.47488 -0.417314 -8.65147e-10 -3.45449e-09 -2.13216e-09 -2.90554 0.965183 -0.102902 -8.65156e-10 -3.45451e-09 -2.13217e-09 -10.2786 0.731801 -0.0259123 -8.6514e-10 -3.45449e-09 -2.13217e-09 -2.22167 -0.733487 0.20892 -2.03217e-16 0.0 -3.88251e-19 -62.008 -61.7563 -51.7009 -2.47686 72.7243 3.0794 1.61185 -3.64963 11.9893 2.03217e-16 0.0 3.88251e-19 3.9076 16.0108 6.29769 -0.217415 27.7045 -2.40287 14.1538 -21.5482 35.9705
-17.4883 55.9835 233.404 9.0851 13.087 7.3705 -17.9859 9.63501 -17.4592 11.754 -8.04927 -4.45125 -10.9063 26.351 -21.44 24.7843 -26.7506 -37.7545 -0.0 0.0 0.0 -0.0 0.0 0.0 -6.39774e-14 -3.21975e-14 -3.76518e-14 57.9623 43.3308 6.66366 -15.496 -8.22704 28.616 -0.104526 9.18155 1.30166 -2.28917e-10 3.76888e-10 -1.29158e-10 -3.9818e-10 6.51943e-10 -2.21249e-10 -2.28914e-10 3.76889e-10 -1.29169e-10 7.73091 5.47488 0.417314 -2.2892e-10 3.76894e-10 -1.29162e-10 2.90554 0.965183 0.102902 -2.28922e-10 3.76892e-10 -1.2916e-10 10.2786 0.731801 0.0259123 -2.28924e-10 3.76893e-10 -1.29153e-10 2.22167 -0.733487 -0.20892 -6.41214e-14 -3.21975e-14 -3.78448e-14 -72.5659 32.2711 -8.17605 14.0661 -7.00805 -25.6871 0.390383 17.4868 -2.5377 -3.90948e-10 -1.6729e-09 -9.17025e-10 -6.9149e-10 -2.90031e-09 -1.58122e-09 -3.90953e-10 -1.6729e-09 -9.17019e-10 -7.73091 5.47488 -0.417314 -3.9095e-10 -1.67289e-09 -9.17016e-10 -2.90554 0.965183 -0.102902 -3.90957e-10 -1.6729e-09 -9.17021e-10 -10.2786 0.731801 -0.0259123 -3.90942e-10 -1.67289e-09 -9.17026e-10 -2.22167 -0.733487 0.20892 -2.03217e-16 0.0 -3.88251e-19 -62.024 -61.7544 -51.6532 -2.47242 72.6993 3.07675 1.60901 -3.64447 11.9822 2.03217e-16 0.0 3.88251e-19 3.87333 16.028 6.39165 -0.218127 27.656 -2.40002 14.1048 -21.5514 35.887
